# xmcd
#
# Track frame offsets:
#	150
#	18872
#	38852
#	55597
#	72632
#	91060
#	102992
#	116440
#	127890
#	142802
#	163467
#	180267
#
# Disc length: 2611
#
# Revision: 1
# Processed by: cddbd v1.5.1PL0 Copyright (c) Steve Scherf et al.
# Submitted via: CDex 1.40Release
# Normalized: r0:TDELIM( - )
#
DISCID=950a310c
DTITLE=Pottery Barn - Modern Country
DYEAR=2002
DGENRE=Country
TTITLE0=Lyle Lovett - You've Been So Good Up To Now
TTITLE1=Shelby Lynne - Killin' Kind
TTITLE2=Jessica Andrews - Now I Know
TTITLE3=Ryan Adams - New York New York
TTITLE4=Phil Vassar - Carlene
TTITLE5=Alecia Elliott - I'm Diggin' It
TTITLE6=Whiskeytown - Jacksonville Skyline
TTITLE7=Willie Nelson - On The Road Again
TTITLE8=Alison Krauss and Union Station - Let Me Touch You For Awhile
TTITLE9=Lucinda Williams - Right In Time
TTITLE10=Sammy Kershaw - Mean To Be
TTITLE11=Kathy Mattea - Walking Away A Winner
EXTD=YEAR: 2002 ID3G: 2
EXTT0=
EXTT1=
EXTT2=
EXTT3=
EXTT4=
EXTT5=
EXTT6=
EXTT7=
EXTT8=
EXTT9=
EXTT10=
EXTT11=
PLAYORDER=
